<svg width="109" height="34" viewBox="0 0 109 34" fill="none" xmlns="http://www.w3.org/2000/svg">
<path d="M22.4847 2H2V32.4906H25.6854V18.3019M25.6854 18.3019H11.9223M25.6854 18.3019H30.8065M30.8065 18.3019V2H51.6113V18.3019L43.6095 24.9434L53.5317 32.4906M30.8065 18.3019V32.4906M37.208 10.4528H44.8897" stroke="#E8E1F0" stroke-width="3.01887" stroke-linecap="round" stroke-linejoin="round"/>
<path d="M60.9443 22.7215C60.5442 22.7215 60.1723 22.637 59.8285 22.4679C59.4848 22.2932 59.1861 22.0594 58.9325 21.7663C58.6789 21.4733 58.4817 21.1465 58.3408 20.7858C58.2056 20.4252 58.1379 20.0532 58.1379 19.67C58.1379 19.2643 58.2056 18.8811 58.3408 18.5205C58.4817 18.1542 58.6761 17.8301 58.924 17.5484C59.172 17.2666 59.465 17.044 59.8031 16.8806C60.1413 16.7172 60.5104 16.6355 60.9105 16.6355C61.5022 16.6355 61.984 16.7566 62.3559 16.9989C62.7278 17.2413 63.0096 17.5568 63.2012 17.9457L62.7447 18.25C62.5531 17.878 62.2967 17.6047 61.9755 17.43C61.6543 17.2553 61.2965 17.168 60.902 17.168C60.5695 17.168 60.268 17.2384 59.9976 17.3793C59.7327 17.5202 59.5045 17.709 59.3129 17.9457C59.1213 18.1823 58.9748 18.45 58.8733 18.7487C58.7775 19.0473 58.7296 19.3573 58.7296 19.6785C58.7296 20.0166 58.786 20.3378 58.8987 20.6421C59.0114 20.9408 59.172 21.2085 59.3805 21.4451C59.589 21.6762 59.8285 21.8593 60.099 21.9946C60.3751 22.1242 60.671 22.189 60.9865 22.189C61.3528 22.189 61.6994 22.0988 62.0262 21.9185C62.3531 21.7325 62.6658 21.4479 62.9645 21.0648V21.6903C62.3953 22.3778 61.7219 22.7215 60.9443 22.7215ZM62.8715 20.1857H61.536V19.7292H63.3702V22.6792H62.8715V20.1857ZM66.3695 22.7638C66.0539 22.7638 65.7609 22.7046 65.4904 22.5863C65.2199 22.4623 64.986 22.2961 64.7888 22.0875C64.5916 21.8734 64.4366 21.6283 64.3239 21.3522C64.2168 21.076 64.1633 20.7802 64.1633 20.4646C64.1633 20.0532 64.2563 19.6757 64.4422 19.3319C64.6338 18.9882 64.8959 18.7149 65.2283 18.512C65.5608 18.3035 65.9384 18.1992 66.361 18.1992C66.7949 18.1992 67.1725 18.3035 67.4937 18.512C67.8205 18.7205 68.0769 18.9966 68.2629 19.3404C68.4489 19.6785 68.5419 20.0504 68.5419 20.4562C68.5419 20.5012 68.5419 20.5463 68.5419 20.5914C68.5419 20.6308 68.539 20.6618 68.5334 20.6844H64.7634C64.7916 20.9999 64.879 21.2817 65.0255 21.5297C65.1776 21.772 65.372 21.9664 65.6087 22.1129C65.851 22.2538 66.1131 22.3242 66.3948 22.3242C66.6822 22.3242 66.9527 22.251 67.2063 22.1045C67.4655 21.9579 67.6459 21.7663 67.7473 21.5297L68.246 21.6649C68.1558 21.8734 68.0178 22.0622 67.8318 22.2312C67.6459 22.4003 67.4261 22.5327 67.1725 22.6285C66.9245 22.7187 66.6569 22.7638 66.3695 22.7638ZM64.7465 20.2702H68.0009C67.9783 19.949 67.891 19.6672 67.7388 19.4249C67.5923 19.1826 67.3979 18.9938 67.1556 18.8586C66.9189 18.7177 66.6569 18.6472 66.3695 18.6472C66.0821 18.6472 65.82 18.7177 65.5834 18.8586C65.3467 18.9938 65.1523 19.1854 65.0001 19.4334C64.8536 19.6757 64.7691 19.9546 64.7465 20.2702ZM71.6264 18.7825C71.2432 18.7938 70.9051 18.9008 70.6121 19.1037C70.3247 19.3066 70.1218 19.5855 70.0035 19.9405V22.6792H69.4287V18.2753H69.9697V19.3319C70.1218 19.022 70.3219 18.7712 70.5698 18.5796C70.8234 18.388 71.0911 18.281 71.3728 18.2584C71.4292 18.2528 71.4771 18.25 71.5165 18.25C71.5616 18.25 71.5982 18.2528 71.6264 18.2584V18.7825ZM72.0206 21.4113C72.0206 21.1352 72.0995 20.8985 72.2573 20.7013C72.4151 20.4984 72.632 20.3434 72.9081 20.2364C73.1899 20.1237 73.5139 20.0673 73.8802 20.0673C74.0943 20.0673 74.3169 20.0842 74.548 20.118C74.779 20.1518 74.9847 20.2026 75.165 20.2702V19.8983C75.165 19.5263 75.0552 19.2305 74.8354 19.0107C74.6156 18.7909 74.3113 18.6811 73.9225 18.6811C73.6858 18.6811 73.4519 18.7261 73.2209 18.8163C72.9955 18.9008 72.7588 19.0276 72.5109 19.1967L72.2911 18.7909C72.5785 18.5937 72.8602 18.4472 73.1364 18.3514C73.4125 18.25 73.6942 18.1992 73.9816 18.1992C74.5226 18.1992 74.9509 18.3542 75.2665 18.6642C75.582 18.9741 75.7398 19.4024 75.7398 19.949V21.9861C75.7398 22.065 75.7567 22.1242 75.7905 22.1636C75.8244 22.1974 75.8779 22.2172 75.9512 22.2228V22.6792C75.8892 22.6849 75.8356 22.6905 75.7905 22.6962C75.7455 22.7018 75.7117 22.7018 75.6891 22.6962C75.5482 22.6905 75.4412 22.6454 75.3679 22.5609C75.2947 22.4764 75.2552 22.3862 75.2496 22.2904L75.2411 21.9692C75.0439 22.2228 74.7875 22.42 74.4719 22.5609C74.1563 22.6962 73.8351 22.7638 73.5083 22.7638C73.2265 22.7638 72.9701 22.7046 72.7391 22.5863C72.5137 22.4623 72.3362 22.2989 72.2065 22.096C72.0826 21.8875 72.0206 21.6593 72.0206 21.4113ZM74.9706 21.7494C75.0326 21.6705 75.0805 21.5945 75.1143 21.5212C75.1481 21.4479 75.165 21.3831 75.165 21.3268V20.6844C74.9734 20.6111 74.7734 20.5548 74.5649 20.5153C74.362 20.4759 74.1563 20.4562 73.9478 20.4562C73.5365 20.4562 73.204 20.5379 72.9504 20.7013C72.6968 20.8647 72.57 21.0873 72.57 21.3691C72.57 21.5325 72.6123 21.6874 72.6968 21.834C72.7813 21.9748 72.9053 22.0932 73.0687 22.189C73.2322 22.2791 73.4238 22.3242 73.6435 22.3242C73.9197 22.3242 74.1761 22.2707 74.4127 22.1636C74.6551 22.0566 74.841 21.9185 74.9706 21.7494ZM76.6859 20.49C76.6859 20.073 76.7704 19.6926 76.9395 19.3488C77.1142 18.9994 77.3537 18.7205 77.658 18.512C77.9623 18.3035 78.3088 18.1992 78.6977 18.1992C79.064 18.1992 79.3908 18.2979 79.6782 18.4951C79.9712 18.6867 80.1994 18.9206 80.3629 19.1967V16.5087H80.9377V21.9861C80.9377 22.065 80.9546 22.1242 80.9884 22.1636C81.0222 22.1974 81.0729 22.2172 81.1405 22.2228V22.6792C81.0278 22.6962 80.9405 22.7018 80.8785 22.6962C80.7602 22.6905 80.6559 22.6426 80.5657 22.5525C80.4756 22.4623 80.4305 22.3637 80.4305 22.2566V21.8255C80.2558 22.1129 80.0191 22.3411 79.7205 22.5102C79.4218 22.6792 79.1119 22.7638 78.7906 22.7638C78.4863 22.7638 78.2046 22.7018 77.9454 22.5778C77.6918 22.4538 77.4692 22.2848 77.2776 22.0706C77.0916 21.8565 76.9451 21.6142 76.838 21.3437C76.7366 21.0676 76.6859 20.783 76.6859 20.49ZM80.3629 21.1662V19.8053C80.2896 19.6024 80.1713 19.4193 80.0079 19.2558C79.8444 19.0868 79.6585 18.9544 79.45 18.8586C79.2471 18.7571 79.0442 18.7064 78.8414 18.7064C78.6047 18.7064 78.3905 18.7571 78.1989 18.8586C78.0073 18.9544 77.8411 19.0868 77.7002 19.2558C77.565 19.4249 77.4607 19.6165 77.3875 19.8306C77.3142 20.0448 77.2776 20.2646 77.2776 20.49C77.2776 20.7266 77.317 20.952 77.3959 21.1662C77.4805 21.3803 77.5988 21.5719 77.7509 21.741C77.9031 21.9044 78.0778 22.0312 78.275 22.1214C78.4723 22.2115 78.6864 22.2566 78.9174 22.2566C79.064 22.2566 79.2161 22.2284 79.3739 22.1721C79.5317 22.1157 79.681 22.0396 79.8219 21.9438C79.9684 21.8424 80.0896 21.7241 80.1854 21.5888C80.2812 21.4536 80.3403 21.3127 80.3629 21.1662ZM84.1165 22.7638C83.8009 22.7638 83.5079 22.7046 83.2374 22.5863C82.9726 22.4623 82.7415 22.2961 82.5443 22.0875C82.3527 21.8734 82.2034 21.6311 82.0963 21.3606C81.9892 21.0845 81.9357 20.7943 81.9357 20.49C81.9357 20.1744 81.9892 19.8814 82.0963 19.6109C82.2034 19.3347 82.3555 19.0924 82.5527 18.8839C82.75 18.6698 82.981 18.5035 83.2459 18.3852C83.5164 18.2612 83.8094 18.1992 84.125 18.1992C84.4405 18.1992 84.7308 18.2612 84.9956 18.3852C85.2605 18.5035 85.4915 18.6698 85.6887 18.8839C85.886 19.0924 86.0381 19.3347 86.1452 19.6109C86.2523 19.8814 86.3058 20.1744 86.3058 20.49C86.3058 20.7943 86.2523 21.0845 86.1452 21.3606C86.0381 21.6311 85.886 21.8734 85.6887 22.0875C85.4972 22.2961 85.2661 22.4623 84.9956 22.5863C84.7308 22.7046 84.4377 22.7638 84.1165 22.7638ZM82.5189 20.4984C82.5189 20.8253 82.5894 21.1239 82.7303 21.3944C82.8768 21.6593 83.0712 21.8706 83.3135 22.0284C83.5558 22.1805 83.8235 22.2566 84.1165 22.2566C84.4096 22.2566 84.6772 22.1777 84.9195 22.0199C85.1619 21.8621 85.3563 21.648 85.5028 21.3775C85.6493 21.1014 85.7226 20.8027 85.7226 20.4815C85.7226 20.1547 85.6493 19.856 85.5028 19.5855C85.3563 19.315 85.1619 19.1009 84.9195 18.9431C84.6772 18.7853 84.4096 18.7064 84.1165 18.7064C83.8235 18.7064 83.5558 18.7881 83.3135 18.9515C83.0768 19.115 82.8852 19.3319 82.7387 19.6024C82.5922 19.8673 82.5189 20.1659 82.5189 20.4984ZM89.4649 18.7825C89.0817 18.7938 88.7435 18.9008 88.4505 19.1037C88.1631 19.3066 87.9603 19.5855 87.8419 19.9405V22.6792H87.2671V18.2753H87.8081V19.3319C87.9603 19.022 88.1603 18.7712 88.4083 18.5796C88.6618 18.388 88.9295 18.281 89.2113 18.2584C89.2676 18.2528 89.3155 18.25 89.355 18.25C89.4 18.25 89.4367 18.2528 89.4649 18.2584V18.7825ZM91.8911 20.49C91.8911 20.073 91.9756 19.6926 92.1447 19.3488C92.3194 18.9994 92.5589 18.7205 92.8632 18.512C93.1675 18.3035 93.514 18.1992 93.9029 18.1992C94.2691 18.1992 94.596 18.2979 94.8834 18.4951C95.1764 18.6867 95.4046 18.9206 95.5681 19.1967V16.5087H96.1429V21.9861C96.1429 22.065 96.1598 22.1242 96.1936 22.1636C96.2274 22.1974 96.2781 22.2172 96.3457 22.2228V22.6792C96.233 22.6962 96.1457 22.7018 96.0837 22.6962C95.9653 22.6905 95.8611 22.6426 95.7709 22.5525C95.6808 22.4623 95.6357 22.3637 95.6357 22.2566V21.8255C95.461 22.1129 95.2243 22.3411 94.9256 22.5102C94.627 22.6792 94.317 22.7638 93.9958 22.7638C93.6915 22.7638 93.4098 22.7018 93.1505 22.5778C92.897 22.4538 92.6744 22.2848 92.4828 22.0706C92.2968 21.8565 92.1503 21.6142 92.0432 21.3437C91.9418 21.0676 91.8911 20.783 91.8911 20.49ZM95.5681 21.1662V19.8053C95.4948 19.6024 95.3765 19.4193 95.213 19.2558C95.0496 19.0868 94.8637 18.9544 94.6552 18.8586C94.4523 18.7571 94.2494 18.7064 94.0465 18.7064C93.8099 18.7064 93.5957 18.7571 93.4041 18.8586C93.2125 18.9544 93.0463 19.0868 92.9054 19.2558C92.7702 19.4249 92.6659 19.6165 92.5927 19.8306C92.5194 20.0448 92.4828 20.2646 92.4828 20.49C92.4828 20.7266 92.5222 20.952 92.6011 21.1662C92.6856 21.3803 92.804 21.5719 92.9561 21.741C93.1083 21.9044 93.283 22.0312 93.4802 22.1214C93.6774 22.2115 93.8916 22.2566 94.1226 22.2566C94.2691 22.2566 94.4213 22.2284 94.5791 22.1721C94.7369 22.1157 94.8862 22.0396 95.0271 21.9438C95.1736 21.8424 95.2947 21.7241 95.3905 21.5888C95.4863 21.4536 95.5455 21.3127 95.5681 21.1662ZM99.3471 22.7638C99.0315 22.7638 98.7385 22.7046 98.468 22.5863C98.1975 22.4623 97.9636 22.2961 97.7664 22.0875C97.5692 21.8734 97.4142 21.6283 97.3015 21.3522C97.1944 21.076 97.1409 20.7802 97.1409 20.4646C97.1409 20.0532 97.2339 19.6757 97.4198 19.3319C97.6114 18.9882 97.8735 18.7149 98.2059 18.512C98.5384 18.3035 98.916 18.1992 99.3386 18.1992C99.7725 18.1992 100.15 18.3035 100.471 18.512C100.798 18.7205 101.055 18.9966 101.241 19.3404C101.426 19.6785 101.519 20.0504 101.519 20.4562C101.519 20.5012 101.519 20.5463 101.519 20.5914C101.519 20.6308 101.517 20.6618 101.511 20.6844H97.741C97.7692 20.9999 97.8566 21.2817 98.0031 21.5297C98.1552 21.772 98.3496 21.9664 98.5863 22.1129C98.8286 22.2538 99.0907 22.3242 99.3724 22.3242C99.6598 22.3242 99.9303 22.251 100.184 22.1045C100.443 21.9579 100.623 21.7663 100.725 21.5297L101.224 21.6649C101.133 21.8734 100.995 22.0622 100.809 22.2312C100.623 22.4003 100.404 22.5327 100.15 22.6285C99.9021 22.7187 99.6345 22.7638 99.3471 22.7638ZM97.7241 20.2702H100.978C100.956 19.949 100.869 19.6672 100.716 19.4249C100.57 19.1826 100.375 18.9938 100.133 18.8586C99.8965 18.7177 99.6345 18.6472 99.3471 18.6472C99.0597 18.6472 98.7976 18.7177 98.561 18.8586C98.3243 18.9938 98.1299 19.1854 97.9777 19.4334C97.8312 19.6757 97.7467 19.9546 97.7241 20.2702ZM64.9491 32.6792V26.6777H67.485C67.7442 26.6777 67.9809 26.7313 68.195 26.8383C68.4092 26.9454 68.5951 27.0919 68.7529 27.2779C68.9163 27.4582 69.0403 27.6611 69.1248 27.8865C69.215 28.1063 69.2601 28.3317 69.2601 28.5627C69.2601 28.8501 69.2037 29.1206 69.091 29.3742C68.984 29.6278 68.829 29.8419 68.6261 30.0166C68.4289 30.1913 68.195 30.3068 67.9245 30.3632L69.3953 32.6792H68.7275L67.3159 30.4646H65.5408V32.6792H64.9491ZM65.5408 29.9405H67.5019C67.7386 29.9405 67.9443 29.8757 68.1189 29.7461C68.2936 29.6165 68.4289 29.4474 68.5247 29.2389C68.6205 29.0248 68.6684 28.7994 68.6684 28.5627C68.6684 28.3204 68.612 28.0978 68.4993 27.8949C68.3923 27.6864 68.2457 27.5202 68.0598 27.3962C67.8794 27.2666 67.6766 27.2018 67.4512 27.2018H65.5408V29.9405ZM72.123 32.7638C71.8074 32.7638 71.5144 32.7046 71.2439 32.5863C70.9734 32.4623 70.7396 32.2961 70.5423 32.0875C70.3451 31.8734 70.1901 31.6283 70.0774 31.3522C69.9704 31.076 69.9168 30.7802 69.9168 30.4646C69.9168 30.0532 70.0098 29.6757 70.1958 29.3319C70.3874 28.9882 70.6494 28.7149 70.9819 28.512C71.3144 28.3035 71.6919 28.1992 72.1146 28.1992C72.5485 28.1992 72.926 28.3035 73.2472 28.512C73.5741 28.7205 73.8305 28.9966 74.0164 29.3404C74.2024 29.6785 74.2954 30.0504 74.2954 30.4562C74.2954 30.5012 74.2954 30.5463 74.2954 30.5914C74.2954 30.6308 74.2926 30.6618 74.2869 30.6844H70.517C70.5451 30.9999 70.6325 31.2817 70.779 31.5297C70.9312 31.772 71.1256 31.9664 71.3623 32.1129C71.6046 32.2538 71.8666 32.3242 72.1484 32.3242C72.4358 32.3242 72.7063 32.251 72.9598 32.1045C73.2191 31.9579 73.3994 31.7663 73.5008 31.5297L73.9995 31.6649C73.9094 31.8734 73.7713 32.0622 73.5854 32.2312C73.3994 32.4003 73.1796 32.5327 72.926 32.6285C72.6781 32.7187 72.4104 32.7638 72.123 32.7638ZM70.5001 30.2702H73.7544C73.7319 29.949 73.6445 29.6672 73.4924 29.4249C73.3459 29.1826 73.1514 28.9938 72.9091 28.8586C72.6724 28.7177 72.4104 28.6472 72.123 28.6472C71.8356 28.6472 71.5736 28.7177 71.3369 28.8586C71.1002 28.9938 70.9058 29.1854 70.7537 29.4334C70.6071 29.6757 70.5226 29.9546 70.5001 30.2702ZM77.0926 32.7638C76.7713 32.7638 76.4755 32.7046 76.205 32.5863C75.9401 32.4623 75.7063 32.2932 75.5034 32.0791C75.3062 31.865 75.1512 31.6198 75.0385 31.3437C74.9314 31.0676 74.8779 30.7745 74.8779 30.4646C74.8779 30.0476 74.9709 29.6672 75.1569 29.3235C75.3428 28.9797 75.602 28.7064 75.9345 28.5035C76.267 28.3007 76.6502 28.1992 77.0841 28.1992C77.4955 28.1992 77.8589 28.295 78.1745 28.4866C78.4901 28.6726 78.7239 28.9262 78.8761 29.2474L78.3182 29.4249C78.1942 29.1995 78.0195 29.0248 77.7941 28.9008C77.5744 28.7712 77.3292 28.7064 77.0587 28.7064C76.7657 28.7064 76.498 28.7825 76.2557 28.9346C76.0134 29.0868 75.819 29.2953 75.6725 29.5602C75.5316 29.825 75.4612 30.1265 75.4612 30.4646C75.4612 30.7971 75.5344 31.0986 75.6809 31.3691C75.8274 31.6395 76.0219 31.8565 76.2642 32.0199C76.5065 32.1777 76.7742 32.2566 77.0672 32.2566C77.2588 32.2566 77.4419 32.2228 77.6166 32.1552C77.797 32.0875 77.9519 31.9974 78.0815 31.8847C78.2168 31.7663 78.3069 31.6395 78.352 31.5043L78.9184 31.6734C78.8395 31.8819 78.707 32.0706 78.5211 32.2397C78.3408 32.4031 78.1266 32.5327 77.8787 32.6285C77.6363 32.7187 77.3743 32.7638 77.0926 32.7638ZM79.8214 32.6792V28.2753H80.3962V32.6792H79.8214ZM79.8214 27.354V26.5087H80.3962V27.354H79.8214ZM83.8176 32.7638C83.4739 32.7638 83.1555 32.6764 82.8625 32.5017C82.5694 32.3214 82.3412 32.096 82.1778 31.8255V32.6792H81.6622V26.5087H82.237V29.1967C82.4342 28.898 82.6709 28.6585 82.947 28.4782C83.2231 28.2922 83.5443 28.1992 83.9106 28.1992C84.2206 28.1992 84.4967 28.264 84.739 28.3937C84.9869 28.5233 85.1983 28.698 85.373 28.9177C85.5476 29.1319 85.6801 29.377 85.7702 29.6531C85.8604 29.9236 85.9055 30.2026 85.9055 30.49C85.9055 30.7999 85.8519 31.0901 85.7449 31.3606C85.6434 31.6311 85.4969 31.8734 85.3053 32.0875C85.1137 32.2961 84.8911 32.4623 84.6376 32.5863C84.3896 32.7046 84.1163 32.7638 83.8176 32.7638ZM83.6824 32.2566C83.9191 32.2566 84.1388 32.2087 84.3417 32.1129C84.5446 32.0171 84.7193 31.8847 84.8658 31.7156C85.0123 31.5466 85.125 31.3578 85.2039 31.1493C85.2828 30.9351 85.3222 30.7154 85.3222 30.49C85.3222 30.18 85.2546 29.8898 85.1194 29.6193C84.9898 29.3432 84.8066 29.1234 84.5699 28.96C84.3389 28.7909 84.0656 28.7064 83.75 28.7064C83.5246 28.7064 83.3133 28.7571 83.116 28.8586C82.9245 28.96 82.7526 29.0952 82.6004 29.2643C82.4539 29.4277 82.3328 29.608 82.237 29.8053V31.1746C82.2595 31.3268 82.3187 31.4705 82.4145 31.6057C82.5103 31.7353 82.6286 31.848 82.7695 31.9438C82.916 32.0396 83.0681 32.1157 83.2259 32.1721C83.3837 32.2284 83.5359 32.2566 83.6824 32.2566ZM88.7557 32.7638C88.4401 32.7638 88.1471 32.7046 87.8766 32.5863C87.6117 32.4623 87.3807 32.2961 87.1834 32.0875C86.9918 31.8734 86.8425 31.6311 86.7354 31.3606C86.6284 31.0845 86.5748 30.7943 86.5748 30.49C86.5748 30.1744 86.6284 29.8814 86.7354 29.6109C86.8425 29.3347 86.9947 29.0924 87.1919 28.8839C87.3891 28.6698 87.6202 28.5035 87.885 28.3852C88.1555 28.2612 88.4486 28.1992 88.7641 28.1992C89.0797 28.1992 89.3699 28.2612 89.6348 28.3852C89.8996 28.5035 90.1307 28.6698 90.3279 28.8839C90.5251 29.0924 90.6773 29.3347 90.7844 29.6109C90.8914 29.8814 90.945 30.1744 90.945 30.49C90.945 30.7943 90.8914 31.0845 90.7844 31.3606C90.6773 31.6311 90.5251 31.8734 90.3279 32.0875C90.1363 32.2961 89.9053 32.4623 89.6348 32.5863C89.3699 32.7046 89.0769 32.7638 88.7557 32.7638ZM87.1581 30.4984C87.1581 30.8253 87.2285 31.1239 87.3694 31.3944C87.5159 31.6593 87.7103 31.8706 87.9527 32.0284C88.195 32.1805 88.4626 32.2566 88.7557 32.2566C89.0487 32.2566 89.3164 32.1777 89.5587 32.0199C89.801 31.8621 89.9954 31.648 90.1419 31.3775C90.2885 31.1014 90.3617 30.8027 90.3617 30.4815C90.3617 30.1547 90.2885 29.856 90.1419 29.5855C89.9954 29.315 89.801 29.1009 89.5587 28.9431C89.3164 28.7853 89.0487 28.7064 88.7557 28.7064C88.4626 28.7064 88.195 28.7881 87.9527 28.9515C87.716 29.115 87.5244 29.3319 87.3779 29.6024C87.2313 29.8673 87.1581 30.1659 87.1581 30.4984ZM93.3517 32.7638C92.991 32.7638 92.6558 32.7046 92.3458 32.5863C92.0359 32.4679 91.7682 32.2876 91.5428 32.0453L91.7795 31.6395C92.0274 31.8706 92.2754 32.0396 92.5233 32.1467C92.7769 32.2482 93.0446 32.2989 93.3263 32.2989C93.6701 32.2989 93.949 32.2312 94.1632 32.096C94.3773 31.9551 94.4844 31.7551 94.4844 31.4958C94.4844 31.3212 94.4308 31.1887 94.3238 31.0986C94.2223 31.0028 94.073 30.9267 93.8758 30.8703C93.6842 30.8084 93.4531 30.7435 93.1826 30.6759C92.8783 30.5914 92.6219 30.504 92.4134 30.4139C92.2106 30.3181 92.0556 30.1997 91.9485 30.0589C91.8471 29.9124 91.7964 29.7236 91.7964 29.4925C91.7964 29.2051 91.8668 28.9685 92.0077 28.7825C92.1542 28.5909 92.3514 28.4472 92.5994 28.3514C92.853 28.25 93.1347 28.1992 93.4447 28.1992C93.7828 28.1992 94.0815 28.2528 94.3407 28.3598C94.5999 28.4669 94.8112 28.6163 94.9746 28.8078L94.6957 29.1967C94.5379 29.0164 94.3491 28.8839 94.1294 28.7994C93.9152 28.7092 93.6757 28.6642 93.4109 28.6642C93.2305 28.6642 93.0587 28.6895 92.8952 28.7402C92.7318 28.7853 92.5966 28.8642 92.4895 28.9769C92.3881 29.084 92.3374 29.2333 92.3374 29.4249C92.3374 29.5827 92.3768 29.7067 92.4557 29.7968C92.5346 29.8814 92.6529 29.9546 92.8107 30.0166C92.9685 30.073 93.1629 30.1349 93.394 30.2026C93.7264 30.2927 94.0167 30.3857 94.2646 30.4815C94.5126 30.5717 94.7042 30.69 94.8394 30.8365C94.9746 30.983 95.0423 31.1887 95.0423 31.4536C95.0423 31.865 94.8873 32.1862 94.5774 32.4172C94.2674 32.6483 93.8589 32.7638 93.3517 32.7638Z" fill="#E8E1F0"/>
</svg>
